<?xml version="1.0" ?><svg viewBox="0 0 512 512" xmlns="http://www.w3.org/2000/svg"><title/><g data-name="1" id="_1"><path d="M393.43,450H164.56a50.17,50.17,0,0,1-50.11-50.11V98.11A50.17,50.17,0,0,1,164.56,48h150.1a15,15,0,0,1,10.61,4.39L439.15,166.27a15,15,0,0,1,4.39,10.61v223A50.17,50.17,0,0,1,393.43,450ZM164.56,78a20.13,20.13,0,0,0-20.11,20.11V399.89A20.13,20.13,0,0,0,164.56,420H393.43a20.13,20.13,0,0,0,20.11-20.11V183.09L308.45,78Z"/><path d="M428.54,191.88H349.77a50.17,50.17,0,0,1-50.11-50.11V63a15,15,0,0,1,30,0v78.77a20.13,20.13,0,0,0,20.11,20.11h78.77a15,15,0,1,1,0,30Z"/><path d="M208.38,279.14c-7.55,0-11.91,4.24-11.91,13.24v35.08c0,9,4.36,13.24,12,13.24,10.59,0,11.25-8.08,11.65-13.24.4-4.9,4.9-6.22,10.19-6.22,7.15,0,10.46,1.85,10.46,9.79,0,17.61-14.3,27.67-33.22,27.67-17.35,0-31.77-8.47-31.77-31.24V292.38c0-22.77,14.42-31.24,31.77-31.24,18.92,0,33.22,9.53,33.22,26.34,0,7.95-3.31,9.8-10.32,9.8-5.56,0-10.06-1.46-10.33-6.22C220,287.62,219.63,279.14,208.38,279.14Z"/><path d="M291,332c0-16-42-13.24-42-44.21,0-19.86,17.34-27.4,33.88-27.4,7,0,26.34,1.32,26.34,11.65,0,3.57-2.38,10.85-8.2,10.85-4.77,0-7.28-5-18.14-5-9.4,0-13.24,3.84-13.24,7.94,0,13.24,42,10.73,42,44.08,0,19.06-13.9,29.39-33.1,29.39-17.34,0-31.9-8.47-31.9-17.21,0-4.5,4-11.12,9-11.12,6.23,0,10.2,9.8,22.51,9.8C284.23,340.7,291,338.31,291,332Z"/><path d="M361.53,332c0-16-42-13.24-42-44.21,0-19.86,17.34-27.4,33.88-27.4,7,0,26.34,1.32,26.34,11.65,0,3.57-2.38,10.85-8.2,10.85-4.77,0-7.28-5-18.14-5-9.39,0-13.23,3.84-13.23,7.94,0,13.24,42,10.73,42,44.08,0,19.06-13.9,29.39-33.1,29.39-17.34,0-31.9-8.47-31.9-17.21,0-4.5,4-11.12,9-11.12,6.23,0,10.2,9.8,22.51,9.8C354.78,340.7,361.53,338.31,361.53,332Z"/></g></svg>